<svg viewBox="0 0 1024 1024" version="1.1" xmlns="http://www.w3.org/2000/svg"><path d="M512 64c-64 0-118 32-152 84-12 18-20 40-20 64 0 12 2 24 6 36-48 24-84 70-96 126-4 18-6 38-6 58 0 24 4 48 12 70-48 24-84 70-96 126-4 18-6 38-6 58 0 110 90 200 200 200h316c110 0 200-90 200-200 0-20-2-40-6-58-12-56-48-102-96-126 8-22 12-46 12-70 0-20-2-40-6-58-12-56-48-102-96-126 4-12 6-24 6-36 0-24-8-46-20-64-34-52-88-84-152-84z" fill="#6366f1" opacity="0.2"/><path d="M832 576c0 88.4-71.6 160-160 160H352c-88.4 0-160-71.6-160-160 0-88.4 71.6-160 160-160 18.6 0 36.4 3.2 53 9 26.6-63.4 89.4-108 163-108s136.4 44.6 163 108c16.6-5.8 34.4-9 53-9 88.4 0 160 71.6 160 160z" fill="#ffffff"/><path d="M768 480c-16.6 0-32.4 2.8-47.4 8-22.8-60.4-81.4-104-148.6-104-67.2 0-125.8 43.6-148.6 104-15-5.2-30.8-8-47.4-8-70.6 0-128 57.4-128 128s57.4 128 128 128h320c70.6 0 128-57.4 128-128s-57.4-128-128-128z" fill="#6366f1"/></svg>
